<?xml version="1.0" standalone="no"?>
<!DOCTYPE svg PUBLIC "-//W3C//DTD SVG 20010904//EN"
 "http://www.w3.org/TR/2001/REC-SVG-20010904/DTD/svg10.dtd">
<svg version="1.0" xmlns="http://www.w3.org/2000/svg"
 width="128.000000pt" height="180.000000pt" viewBox="0 0 128.000000 180.000000"
 preserveAspectRatio="xMidYMid meet">

<g transform="translate(0.000000,180.000000) scale(0.100000,-0.100000)"
fill="#000000" stroke="none">
<path d="M0 905 l0 -895 640 0 640 0 0 895 0 895 -640 0 -640 0 0 -895z m788
716 c75 -23 188 -97 242 -158 22 -25 58 -82 80 -126 39 -78 40 -81 40 -188 0
-181 -49 -299 -169 -401 -55 -47 -131 -87 -172 -90 l-34 -3 -3 86 -3 86 33 14
c45 18 110 80 150 142 31 49 33 57 33 142 0 84 -3 96 -34 159 -41 79 -82 118
-171 160 -56 27 -76 31 -145 31 -66 0 -90 -5 -137 -27 -72 -34 -143 -99 -174
-160 -31 -61 -49 -192 -34 -246 17 -60 90 -153 153 -196 l58 -38 -3 -82 c-3
-80 -3 -81 -28 -78 -94 10 -230 124 -289 242 -51 102 -64 168 -59 299 3 92 8
113 32 161 61 118 163 207 303 265 77 32 239 35 331 6z m-98 -226 c6 -8 14
-40 17 -72 4 -49 2 -62 -17 -85 -30 -39 -56 -37 -63 5 -18 100 -19 149 -6 158
21 13 55 11 69 -6z m-141 -34 c6 -11 14 -50 17 -88 5 -54 3 -71 -9 -81 -37
-31 -67 22 -67 119 0 56 6 66 37 68 7 1 17 -8 22 -18z m275 -33 c35 -49 9
-138 -38 -138 -29 0 -36 16 -36 86 0 94 30 115 74 52z m-374 -37 c12 -24 13
-121 1 -140 -22 -35 -69 55 -56 107 13 51 37 66 55 33z m417 -158 c16 -21 17
-107 2 -134 -5 -11 -35 -36 -64 -55 -30 -19 -60 -44 -66 -57 -17 -30 -30 -196
-22 -280 l6 -69 89 4 89 3 4 -94 3 -93 -83 7 c-78 6 -84 5 -95 -14 -6 -12 -9
-55 -8 -98 3 -78 3 -78 -22 -76 -14 2 -54 4 -90 5 l-65 3 -3 80 c-2 43 -8 85
-15 93 -9 11 -29 13 -90 9 -89 -7 -99 0 -72 53 12 24 15 45 10 85 -9 65 1 73
60 50 24 -9 59 -15 77 -13 l33 3 3 169 2 169 -49 49 c-50 49 -78 105 -67 135
5 12 19 15 75 11 59 -3 77 -9 114 -35 l44 -32 49 16 c27 9 55 18 62 19 6 2 12
12 12 23 0 18 -8 20 -66 23 -71 3 -94 18 -80 53 6 16 16 17 109 12 80 -5 105
-10 114 -24z"/>
</g>
</svg>
